<svg width="72" height="71" viewBox="0 0 72 71" fill="none" xmlns="http://www.w3.org/2000/svg">
<path d="M66.9375 35.9639C66.9375 33.6787 66.7324 31.4814 66.3516 29.3721H36V41.8525H53.3437C52.582 45.8662 50.2969 49.2646 46.8691 51.5498V59.665H57.3281C63.4219 54.04 66.9375 45.7783 66.9375 35.9639Z" fill="#4285F4"/>
<path d="M36 67.458C44.7012 67.458 51.9961 64.5869 57.3281 59.665L46.8691 51.5498C43.998 53.4834 40.3359 54.6553 36 54.6553C27.6211 54.6553 20.502 49.001 17.9531 41.3838H7.23047V49.7041C12.5332 60.2217 23.4023 67.458 36 67.458Z" fill="#34A853"/>
<path d="M17.9531 41.3545C17.3086 39.4209 16.9277 37.3701 16.9277 35.2314C16.9277 33.0928 17.3086 31.042 17.9531 29.1084V20.7881H7.23047C5.0332 25.124 3.77344 30.0166 3.77344 35.2314C3.77344 40.4463 5.0332 45.3389 7.23047 49.6748L15.5801 43.1709L17.9531 41.3545Z" fill="#FBBC05"/>
<path d="M36 15.8369C40.7461 15.8369 44.9648 17.4775 48.334 20.6416L57.5625 11.4131C51.9668 6.19824 44.7012 3.00488 36 3.00488C23.4023 3.00488 12.5332 10.2412 7.23047 20.7881L17.9531 29.1084C20.502 21.4912 27.6211 15.8369 36 15.8369Z" fill="#EA4335"/>
</svg>
