<svg width="31" height="31" viewBox="0 0 31 31" fill="none" xmlns="http://www.w3.org/2000/svg">
<path d="M15.5 2.90625C19.4188 2.90625 19.9531 2.90625 21.5563 2.90625C22.9813 2.90625 23.6938 3.26875 24.2281 3.45C24.9406 3.8125 25.475 3.99375 26.0094 4.5375C26.5438 5.08125 26.9 5.625 27.0781 6.35C27.2563 6.89375 27.4344 7.61875 27.6125 9.06875C27.6125 10.7 27.6125 11.0625 27.6125 15.2313C27.6125 19.4 27.6125 19.7625 27.6125 21.3937C27.6125 22.8438 27.2563 23.5687 27.0781 24.1125C26.7219 24.8375 26.5438 25.3812 26.0094 25.925C25.475 26.4688 24.9406 26.8312 24.2281 27.0125C23.6938 27.1938 22.9813 27.375 21.5563 27.5562C19.9531 27.5562 19.5969 27.5562 15.5 27.5562C11.4031 27.5562 11.0469 27.5562 9.44376 27.5562C8.01876 27.5562 7.30626 27.1938 6.77189 27.0125C6.05939 26.65 5.52501 26.4688 4.99064 25.925C4.45626 25.3812 4.10001 24.8375 3.92189 24.1125C3.74376 23.5687 3.56564 22.8438 3.38751 21.3937C3.38751 19.7625 3.38751 19.4 3.38751 15.2313C3.38751 11.0625 3.38751 10.7 3.38751 9.06875C3.38751 7.61875 3.74376 6.89375 3.92189 6.35C4.27814 5.625 4.45626 5.08125 4.99064 4.5375C5.52501 3.99375 6.05939 3.63125 6.77189 3.45C7.30626 3.26875 8.01876 3.0875 9.44376 2.90625C11.0469 2.90625 11.5813 2.90625 15.5 2.90625ZM15.5 0.1875C11.4031 0.1875 11.0469 0.1875 9.44376 0.1875C7.84064 0.1875 6.77189 0.550001 5.88126 0.912501C4.99064 1.275 4.10001 1.81875 3.20939 2.725C2.31876 3.63125 1.96251 4.35625 1.42814 5.44375C1.07189 6.35 0.893762 7.4375 0.715637 9.06875C0.715637 10.7 0.715637 11.2438 0.715637 15.2313C0.715637 19.4 0.715637 19.7625 0.715637 21.3937C0.715637 23.025 1.07189 24.1125 1.42814 25.0187C1.78439 25.925 2.31876 26.8312 3.20939 27.7375C4.10001 28.6437 4.81251 29.0063 5.88126 29.55C6.77189 29.9125 7.84064 30.0937 9.44376 30.275C11.0469 30.275 11.5813 30.275 15.5 30.275C19.4188 30.275 19.9531 30.275 21.5563 30.275C23.1594 30.275 24.2281 29.9125 25.1188 29.55C26.0094 29.1875 26.9 28.6437 27.7906 27.7375C28.6813 26.8312 29.0375 26.1063 29.5719 25.0187C29.9281 24.1125 30.1063 23.025 30.2844 21.3937C30.2844 19.7625 30.2844 19.2188 30.2844 15.2313C30.2844 11.2438 30.2844 10.7 30.2844 9.06875C30.2844 7.4375 29.9281 6.35 29.5719 5.44375C29.2156 4.5375 28.6813 3.63125 27.7906 2.725C26.9 1.81875 26.1875 1.45625 25.1188 0.912501C24.2281 0.550001 23.1594 0.36875 21.5563 0.1875C19.9531 0.1875 19.5969 0.1875 15.5 0.1875Z" fill="white"/>
<path d="M15.5 7.4375C11.225 7.4375 7.84064 10.8813 7.84064 15.2313C7.84064 19.5813 11.225 23.025 15.5 23.025C19.775 23.025 23.1594 19.5813 23.1594 15.2313C23.1594 10.8813 19.775 7.4375 15.5 7.4375ZM15.5 20.3062C12.8281 20.3062 10.5125 18.1313 10.5125 15.2313C10.5125 12.5125 12.65 10.1562 15.5 10.1562C18.1719 10.1562 20.4875 12.3313 20.4875 15.2313C20.4875 17.95 18.1719 20.3062 15.5 20.3062Z" fill="white"/>
<path d="M23.3375 9.06875C24.3213 9.06875 25.1188 8.25727 25.1188 7.25625C25.1188 6.25523 24.3213 5.44375 23.3375 5.44375C22.3538 5.44375 21.5563 6.25523 21.5563 7.25625C21.5563 8.25727 22.3538 9.06875 23.3375 9.06875Z" fill="white"/>
</svg>
