<svg width="138" height="77" viewBox="0 0 138 77" fill="none" xmlns="http://www.w3.org/2000/svg">
<path d="M26.3535 14.0527C25.8809 16.4876 25.3652 18.8581 24.8066 21.1641C24.2624 23.4557 23.6823 25.6615 23.0664 27.7812C23.3529 27.6667 23.625 27.5807 23.8828 27.5234C24.1406 27.4661 24.3984 27.4375 24.6562 27.4375C24.6992 27.4375 24.7708 27.4447 24.8711 27.459C24.9714 27.4733 25.043 27.4805 25.0859 27.4805C27.0911 25.1888 28.8672 23.0618 30.4141 21.0996C31.9753 19.123 33.1068 17.569 33.8086 16.4375C34.0234 16.0651 34.2956 15.5781 34.625 14.9766C35.4844 13.3724 36.7233 12.5703 38.3418 12.5703C39.373 12.5703 40.1895 12.6849 40.791 12.9141C41.4069 13.1289 41.7148 13.4225 41.7148 13.7949C41.7148 14.7259 40.4688 16.5592 37.9766 19.2949C35.4844 22.0306 32.319 24.931 28.4805 27.9961C29.8268 28.3398 30.8223 28.8483 31.4668 29.5215C32.1113 30.1803 32.4336 31.0397 32.4336 32.0996C32.4336 32.9876 32.0684 34.513 31.3379 36.6758C30.6074 38.8385 30.2422 40.3353 30.2422 41.166C30.2422 41.9395 30.4785 42.498 30.9512 42.8418C31.4382 43.1712 32.2832 43.3646 33.4863 43.4219L32.6484 46.3008H32.3906C29.7552 46.3008 27.8145 45.9427 26.5684 45.2266C25.3223 44.4961 24.6992 43.3717 24.6992 41.8535C24.6992 40.7507 25.0931 39.0677 25.8809 36.8047C26.6686 34.5417 27.0625 33.0449 27.0625 32.3145C27.0625 31.985 26.9193 31.6986 26.6328 31.4551C26.3607 31.1973 25.9596 31.0039 25.4297 30.875C24.9284 31.6914 24.2982 32.3503 23.5391 32.8516C22.7799 33.3385 21.9492 33.6322 21.0469 33.7324C19.3854 38.1152 17.4661 41.3236 15.2891 43.3574C13.112 45.377 10.5267 46.3867 7.5332 46.3867C5.57096 46.3867 3.95964 45.8854 2.69922 44.8828C1.4388 43.8802 0.808594 42.6126 0.808594 41.0801C0.808594 40.3639 0.994792 39.7767 1.36719 39.3184C1.73958 38.8457 2.21224 38.6094 2.78516 38.6094H2.91406C3.17188 39.6979 3.69466 40.5215 4.48242 41.0801C5.28451 41.6387 6.33008 41.918 7.61914 41.918C10.2402 41.918 12.5605 39.9844 14.5801 36.1172C16.6139 32.25 18.6048 25.9264 20.5527 17.1465C19.7793 16.9889 19.0846 16.8743 18.4688 16.8027C17.8672 16.7311 17.3158 16.6953 16.8145 16.6953C15.1387 16.6953 13.9714 16.9245 13.3125 17.3828C12.6536 17.8411 12.2598 18.6862 12.1309 19.918C12.0592 19.9323 11.9805 19.9466 11.8945 19.9609C11.8229 19.9609 11.7155 19.9609 11.5723 19.9609C10.8848 19.9609 10.3262 19.7533 9.89648 19.3379C9.4668 18.9225 9.25195 18.3783 9.25195 17.7051C9.25195 16.1152 10.0039 14.862 11.5078 13.9453C13.026 13.0286 15.1172 12.5703 17.7812 12.5703C19.1419 12.5703 20.5241 12.6921 21.9277 12.9355C23.3314 13.179 24.8066 13.5514 26.3535 14.0527ZM32.187 46.3008L33.0248 43.4004C34.8009 43.0996 36.4265 41.8965 37.9018 39.791C39.3771 37.6712 41.0815 33.9902 43.0151 28.748C42.6857 28.4186 42.4422 28.0534 42.2846 27.6523C42.1271 27.2513 42.0483 26.793 42.0483 26.2773C42.0483 25.2461 42.3276 24.3939 42.8862 23.7207C43.4591 23.0332 44.1752 22.6895 45.0346 22.6895C45.8224 22.6895 46.4454 22.9043 46.9038 23.334C47.3621 23.7637 47.5913 24.3366 47.5913 25.0527C47.5913 25.3965 47.5554 25.7188 47.4838 26.0195C47.4122 26.306 47.2976 26.5996 47.1401 26.9004C47.8705 27.3587 48.8159 27.9102 49.976 28.5547C52.0815 29.6862 53.1342 30.8105 53.1342 31.9277C53.1342 32.873 52.5613 34.5417 51.4155 36.9336C50.2696 39.3255 49.6967 40.9512 49.6967 41.8105C49.6967 42.3262 49.8901 42.6914 50.2768 42.9062C50.6778 43.1068 51.7019 43.2786 53.3491 43.4219L52.5112 46.3008H51.8666C49.2885 46.3008 47.4337 46.0072 46.3022 45.4199C45.1707 44.8184 44.6049 43.8516 44.6049 42.5195C44.6049 41.3307 45.142 39.569 46.2163 37.2344C47.3048 34.8854 47.8491 33.3815 47.8491 32.7227C47.8491 32.4076 47.6629 32.0853 47.2905 31.7559C46.9181 31.4121 46.2879 30.9824 45.3998 30.4668C43.4806 36.0098 41.4969 39.9987 39.4487 42.4336C37.4148 44.8542 34.9942 46.1432 32.187 46.3008ZM52.1356 46.3008L52.952 43.4004C54.6421 43.3431 56.0816 42.4121 57.2704 40.6074C58.4735 38.7884 59.605 35.8021 60.6649 31.6484C60.8225 30.9896 61.0087 30.1517 61.2235 29.1348C61.6532 26.972 63.064 25.8906 65.4559 25.8906C66.0145 25.8906 66.4371 25.9766 66.7235 26.1484C67.0243 26.306 67.1747 26.5423 67.1747 26.8574C67.1747 27.2871 66.924 28.125 66.4227 29.3711C65.9358 30.6172 65.5848 31.584 65.37 32.2715L63.3075 38.502L63.2216 38.7598C62.7059 40.2637 62.4481 41.2376 62.4481 41.6816C62.4481 42.2832 62.6486 42.7057 63.0497 42.9492C63.4507 43.1784 64.2743 43.3288 65.5204 43.4004L64.704 46.3008H63.952C62.1044 46.3008 60.7151 46.0645 59.7841 45.5918C58.8674 45.1048 58.3231 44.3314 58.1512 43.2715C57.3062 44.2454 56.3967 44.9831 55.4227 45.4844C54.4345 45.9714 53.3387 46.2435 52.1356 46.3008ZM66.6376 19.3379C65.8068 19.3379 65.1623 19.1159 64.704 18.6719C64.26 18.2135 64.038 17.569 64.038 16.7383C64.038 15.6641 64.3674 14.7617 65.0262 14.0312C65.6994 13.2865 66.5015 12.9141 67.4325 12.9141C68.1916 12.9141 68.8218 13.1647 69.3231 13.666C69.8244 14.1673 70.0751 14.8118 70.0751 15.5996C70.0751 16.6595 69.7456 17.5475 69.0868 18.2637C68.4279 18.9798 67.6115 19.3379 66.6376 19.3379ZM85.0823 30.3809C84.6956 30.0801 84.3089 29.8581 83.9222 29.7148C83.5498 29.5716 83.1702 29.5 82.7835 29.5C81.9385 29.5 80.9645 29.8652 79.8616 30.5957C78.7731 31.3262 77.7275 32.3216 76.7249 33.582C75.8083 34.7422 75.0778 35.974 74.5335 37.2773C74.0036 38.5664 73.7386 39.6979 73.7386 40.6719C73.7386 41.3737 73.8603 41.8965 74.1038 42.2402C74.3473 42.5697 74.7197 42.7344 75.221 42.7344C76.6247 42.7344 78.1644 41.6888 79.8402 39.5977C81.5159 37.5065 83.2633 34.4342 85.0823 30.3809ZM82.8909 38.5234C81.3584 41.2448 79.8402 43.2357 78.3363 44.4961C76.8323 45.7565 75.221 46.3867 73.5023 46.3867C72.6859 46.3867 71.9697 46.2721 71.3538 46.043C70.7523 45.8138 70.2796 45.4772 69.9359 45.0332C69.2197 45.4199 68.4033 45.7207 67.4866 45.9355C66.57 46.1361 65.4958 46.2578 64.264 46.3008L65.1234 43.4004C65.9111 43.3574 66.6201 43.2572 67.2503 43.0996C67.8662 42.9421 68.4248 42.7201 68.9261 42.4336C68.8688 42.1328 68.8258 41.8249 68.7972 41.5098C68.7685 41.1803 68.7542 40.8294 68.7542 40.457C68.7542 39.2682 69.012 37.972 69.5277 36.5684C70.0433 35.1504 70.7666 33.7611 71.6976 32.4004C73.1299 30.3379 74.7126 28.7695 76.4456 27.6953C78.193 26.6068 79.9977 26.0625 81.8597 26.0625C82.7907 26.0625 83.5928 26.1986 84.2659 26.4707C84.9391 26.7428 85.5765 27.1797 86.178 27.7812L86.4788 26.8145C86.665 26.2272 86.8512 25.8548 87.0374 25.6973C87.2236 25.5397 87.4958 25.4609 87.8538 25.4609C88.8421 25.4609 89.7015 25.6328 90.432 25.9766C91.1767 26.306 91.5491 26.6999 91.5491 27.1582C91.5491 27.3014 91.2412 27.9746 90.6253 29.1777C90.0094 30.3809 89.4652 31.5267 88.9925 32.6152C88.0472 34.778 87.331 36.6328 86.8441 38.1797C86.3714 39.7122 86.1351 40.8939 86.1351 41.7246C86.1351 42.2975 86.3141 42.6986 86.6722 42.9277C87.0303 43.1426 87.8467 43.3073 89.1214 43.4219L88.2835 46.3008H87.8968C85.6481 46.3008 84.0654 46.0645 83.1488 45.5918C82.2321 45.1191 81.7738 44.3171 81.7738 43.1855C81.7738 42.6842 81.8597 42.0684 82.0316 41.3379C82.2034 40.6074 82.4899 39.6693 82.8909 38.5234ZM87.8005 46.3008L88.6384 43.4004C90.4145 43.0996 92.0401 41.8965 93.5154 39.791C94.9906 37.6712 96.6951 33.9902 98.6287 28.748C98.2992 28.4186 98.0558 28.0534 97.8982 27.6523C97.7406 27.2513 97.6619 26.793 97.6619 26.2773C97.6619 25.2461 97.9412 24.3939 98.4998 23.7207C99.0727 23.0332 99.7888 22.6895 100.648 22.6895C101.436 22.6895 102.059 22.9043 102.517 23.334C102.976 23.7637 103.205 24.3366 103.205 25.0527C103.205 25.3965 103.169 25.7188 103.097 26.0195C103.026 26.306 102.911 26.5996 102.754 26.9004C103.484 27.3587 104.429 27.9102 105.59 28.5547C107.695 29.6862 108.748 30.8105 108.748 31.9277C108.748 32.873 108.175 34.5417 107.029 36.9336C105.883 39.3255 105.31 40.9512 105.31 41.8105C105.31 42.3262 105.504 42.6914 105.89 42.9062C106.291 43.1068 107.316 43.2786 108.963 43.4219L108.125 46.3008H107.48C104.902 46.3008 103.047 46.0072 101.916 45.4199C100.784 44.8184 100.219 43.8516 100.219 42.5195C100.219 41.3307 100.756 39.569 101.83 37.2344C102.918 34.8854 103.463 33.3815 103.463 32.7227C103.463 32.4076 103.276 32.0853 102.904 31.7559C102.532 31.4121 101.901 30.9824 101.013 30.4668C99.0942 36.0098 97.1104 39.9987 95.0623 42.4336C93.0284 44.8542 90.6078 46.1432 87.8005 46.3008ZM107.749 46.3008L108.566 43.4004C110.17 43.2428 111.416 42.7057 112.304 41.7891C113.206 40.8581 114.001 39.168 114.689 36.7188L116.493 30.3379H114.409C114.094 30.3379 113.879 30.3021 113.765 30.2305C113.65 30.1445 113.593 30.0013 113.593 29.8008C113.593 29.7721 113.593 29.7363 113.593 29.6934C113.607 29.6504 113.636 29.5645 113.679 29.4355L114.023 28.4043C114.109 28.1322 114.252 27.946 114.452 27.8457C114.667 27.7454 115.083 27.6953 115.698 27.6953H117.288L119.394 20.7344C119.508 20.362 119.644 19.8464 119.802 19.1875C120.246 17.3255 121.134 16.3945 122.466 16.3945C123.411 16.3945 124.149 16.5163 124.679 16.7598C125.209 16.9889 125.474 17.3184 125.474 17.748C125.474 18.0345 125.309 18.5859 124.98 19.4023C124.808 19.832 124.679 20.1758 124.593 20.4336L122.122 27.6953H125.732C126.004 27.6953 126.211 27.7383 126.355 27.8242C126.498 27.8958 126.57 28.0176 126.57 28.1895C126.57 28.2611 126.562 28.3255 126.548 28.3828C126.548 28.4401 126.541 28.4974 126.527 28.5547L126.161 29.5859C126.075 29.8581 125.918 30.0514 125.689 30.166C125.46 30.2806 125.058 30.3379 124.486 30.3379H121.327L119.222 37.2773C118.978 38.0508 118.799 38.724 118.685 39.2969C118.57 39.8555 118.513 40.3138 118.513 40.6719C118.513 41.4883 118.9 42.1257 119.673 42.584C120.446 43.0423 121.599 43.3145 123.132 43.4004L122.294 46.3008H121.779C119.874 46.3008 118.277 46.0788 116.988 45.6348C115.698 45.1764 114.767 44.5176 114.195 43.6582C113.278 44.446 112.268 45.069 111.165 45.5273C110.048 45.9857 108.909 46.2435 107.749 46.3008Z" fill="#E51924"/>
<path d="M47.08 66.9V65.96H45.08V62.28H51.12V70C49.5333 70.8667 47.7333 71.3 45.72 71.3C43.1067 71.3 41.1467 70.66 39.84 69.38C38.5467 68.1 37.9 66.3667 37.9 64.18C37.9 61.7133 38.4933 59.8533 39.68 58.6C40.88 57.3333 42.86 56.7 45.62 56.7C47.7533 56.7 49.2867 56.92 50.22 57.36V61.46C49.3667 61.1133 48.14 60.94 46.54 60.94C45.2333 60.94 44.28 61.1667 43.68 61.62C43.08 62.0733 42.78 62.8667 42.78 64C42.78 65.1067 43.04 65.8933 43.56 66.36C44.08 66.8267 44.8267 67.06 45.8 67.06C46.2267 67.06 46.6533 67.0067 47.08 66.9ZM63.1388 66.92V71H52.4188V57H63.1388V61.08H57.2188V62.14H62.1388V65.82H57.2188V66.92H63.1388ZM64.1552 70.52V66.52C64.5285 66.7333 65.0952 66.9267 65.8552 67.1C66.6285 67.2733 67.4552 67.36 68.3352 67.36C68.9085 67.36 69.3085 67.32 69.5352 67.24C69.7618 67.16 69.8752 67.0067 69.8752 66.78C69.8752 66.7 69.8618 66.6333 69.8352 66.58C69.8218 66.5267 69.7885 66.48 69.7352 66.44C69.6952 66.4 69.6485 66.3667 69.5952 66.34C69.5418 66.3133 69.4552 66.28 69.3352 66.24C69.2285 66.2 69.1285 66.1733 69.0352 66.16C68.9552 66.1333 68.8218 66.1 68.6352 66.06C68.4485 66.02 68.2885 65.98 68.1552 65.94L67.6152 65.8C66.2552 65.4267 65.3018 64.8467 64.7552 64.06C64.2085 63.26 63.9352 62.2467 63.9352 61.02C63.9352 59.6733 64.4352 58.62 65.4352 57.86C66.4352 57.0867 67.8352 56.7 69.6352 56.7C71.5418 56.7 73.1218 56.92 74.3752 57.36V61.28C73.1218 60.9067 71.7352 60.72 70.2152 60.72C69.2285 60.72 68.7352 60.9133 68.7352 61.3C68.7352 61.42 68.7685 61.52 68.8352 61.6C68.9152 61.68 69.0418 61.7467 69.2152 61.8C69.3885 61.8533 69.5685 61.9 69.7552 61.94C69.9418 61.98 70.2085 62.04 70.5552 62.12C70.9152 62.1867 71.2485 62.2667 71.5552 62.36L72.1352 62.54C74.1618 63.1533 75.1752 64.5933 75.1752 66.86C75.1752 68.2733 74.6352 69.3667 73.5552 70.14C72.4752 70.9133 70.9485 71.3 68.9752 71.3C67.0418 71.3 65.4352 71.04 64.1552 70.52ZM75.7958 70.52V66.52C76.1691 66.7333 76.7358 66.9267 77.4958 67.1C78.2691 67.2733 79.0958 67.36 79.9758 67.36C80.5491 67.36 80.9491 67.32 81.1758 67.24C81.4024 67.16 81.5158 67.0067 81.5158 66.78C81.5158 66.7 81.5024 66.6333 81.4758 66.58C81.4624 66.5267 81.4291 66.48 81.3758 66.44C81.3358 66.4 81.2891 66.3667 81.2358 66.34C81.1824 66.3133 81.0958 66.28 80.9758 66.24C80.8691 66.2 80.7691 66.1733 80.6758 66.16C80.5958 66.1333 80.4624 66.1 80.2758 66.06C80.0891 66.02 79.9291 65.98 79.7958 65.94L79.2558 65.8C77.8958 65.4267 76.9424 64.8467 76.3958 64.06C75.8491 63.26 75.5758 62.2467 75.5758 61.02C75.5758 59.6733 76.0758 58.62 77.0758 57.86C78.0758 57.0867 79.4758 56.7 81.2758 56.7C83.1824 56.7 84.7624 56.92 86.0158 57.36V61.28C84.7624 60.9067 83.3758 60.72 81.8558 60.72C80.8691 60.72 80.3758 60.9133 80.3758 61.3C80.3758 61.42 80.4091 61.52 80.4758 61.6C80.5558 61.68 80.6824 61.7467 80.8558 61.8C81.0291 61.8533 81.2091 61.9 81.3958 61.94C81.5824 61.98 81.8491 62.04 82.1958 62.12C82.5558 62.1867 82.8891 62.2667 83.1958 62.36L83.7758 62.54C85.8024 63.1533 86.8158 64.5933 86.8158 66.86C86.8158 68.2733 86.2758 69.3667 85.1958 70.14C84.1158 70.9133 82.5891 71.3 80.6158 71.3C78.6824 71.3 77.0758 71.04 75.7958 70.52ZM94.8917 67.22C95.6784 67.22 96.2517 66.96 96.6117 66.44C96.9851 65.9067 97.1717 65.0933 97.1717 64C97.1717 61.8533 96.3717 60.78 94.7717 60.78C93.2517 60.78 92.4917 61.8533 92.4917 64C92.4917 65.0267 92.6984 65.82 93.1117 66.38C93.5251 66.94 94.1184 67.22 94.8917 67.22ZM94.8917 71.3C92.4384 71.3 90.5784 70.6867 89.3117 69.46C88.0451 68.2333 87.4117 66.4133 87.4117 64C87.4117 61.6133 88.0517 59.8 89.3317 58.56C90.6117 57.32 92.4251 56.7 94.7717 56.7C97.2784 56.7 99.1517 57.3267 100.392 58.58C101.632 59.8333 102.252 61.64 102.252 64C102.252 68.8667 99.7984 71.3 94.8917 71.3Z" fill="#333075"/>
</svg>
