<svg width="43" height="43" viewBox="0 0 43 43" fill="none" xmlns="http://www.w3.org/2000/svg">
<path d="M20.1567 3.43512C20.7082 2.32503 22.2918 2.32503 22.8433 3.43511L27.3478 12.5011C27.5662 12.9407 27.9859 13.2456 28.4715 13.3175L38.4857 14.8C39.7119 14.9815 40.2013 16.4876 39.316 17.3551L32.0856 24.4407C31.735 24.7843 31.5747 25.2776 31.6564 25.7617L33.3411 35.7439C33.5474 36.9662 32.2662 37.897 31.1675 37.3231L22.1945 32.6362C21.7594 32.4089 21.2406 32.4089 20.8055 32.6362L11.8325 37.3231C10.7338 37.897 9.45263 36.9662 9.65891 35.7439L11.3436 25.7617C11.4253 25.2776 11.265 24.7843 10.9144 24.4407L3.68404 17.3551C2.79873 16.4876 3.28807 14.9815 4.51427 14.8L14.5285 13.3175C15.0141 13.2456 15.4338 12.9407 15.6522 12.5011L20.1567 3.43512Z" fill="#FCD503"/>
</svg>
