<svg width="31" height="30" viewBox="0 0 31 30" fill="none" xmlns="http://www.w3.org/2000/svg">
<path fill-rule="evenodd" clip-rule="evenodd" d="M25.825 4.9002C23.0594 2.18145 19.3719 0.731445 15.5 0.731445C7.3875 0.731445 0.75 7.25645 0.75 15.2314C0.75 17.7689 1.48751 20.3064 2.77814 22.4814L0.75 29.7314L8.49377 27.7377C10.7063 28.8252 13.1031 29.5502 15.5 29.5502C23.6125 29.5502 30.25 23.0252 30.25 15.0502C30.25 11.2439 28.5906 7.61895 25.825 4.9002ZM15.5 27.1939C13.2875 27.1939 11.075 26.6502 9.23126 25.5627L8.86249 25.3814L4.25311 26.6502L5.54376 22.3002L5.17499 21.7564C3.88436 19.7627 3.33124 17.5877 3.33124 15.4127C3.33124 8.8877 8.8625 3.4502 15.5 3.4502C18.8187 3.4502 21.7688 4.71894 24.1656 6.89394C26.5625 9.25019 27.6688 12.1502 27.6688 15.4127C27.6688 21.7564 22.3219 27.1939 15.5 27.1939ZM22.1375 18.1314C21.7688 17.9502 19.925 17.0439 19.5563 17.0439C19.1875 16.8627 19.0031 16.8627 18.8187 17.2252C18.6344 17.5877 17.8969 18.3127 17.7125 18.6752C17.5281 18.8564 17.3437 18.8564 16.975 18.8564C16.6062 18.6752 15.5 18.3127 14.025 17.0439C12.9188 16.1377 12.1813 14.8689 11.9969 14.5064C11.8125 14.1439 11.9969 13.9627 12.1813 13.7814C12.3656 13.6002 12.55 13.4189 12.7344 13.2377C12.9188 13.0564 12.9188 12.8752 13.1031 12.6939C13.2875 12.5127 13.1031 12.3314 13.1031 12.1502C13.1031 11.9689 12.3656 10.1564 11.9969 9.43145C11.8125 8.8877 11.4438 8.8877 11.2594 8.8877C11.075 8.8877 10.8906 8.8877 10.5219 8.8877C10.3375 8.8877 9.96873 8.88769 9.59998 9.25019C9.23123 9.61269 8.30939 10.5189 8.30939 12.3314C8.30939 14.1439 9.59999 15.7752 9.78436 16.1377C9.96874 16.3189 12.3656 20.1252 16.0531 21.5752C19.1875 22.8439 19.7406 22.4814 20.4781 22.4814C21.2156 22.4814 22.6906 21.5752 22.875 20.8502C23.2438 19.9439 23.2438 19.2189 23.0594 19.2189C22.875 18.3127 22.5063 18.3127 22.1375 18.1314Z" fill="white"/>
</svg>
